<svg width="34" height="34" viewBox="0 0 34 34" fill="none" xmlns="http://www.w3.org/2000/svg">
<g clip-path="url(#clip0_168_194)">
<path d="M17 21.25C19.3472 21.25 21.25 19.3472 21.25 17C21.25 14.6528 19.3472 12.75 17 12.75C14.6528 12.75 12.75 14.6528 12.75 17C12.75 19.3472 14.6528 21.25 17 21.25Z" stroke="black" stroke-width="2" stroke-linecap="round" stroke-linejoin="round"/>
<path d="M27.4834 21.2501C27.2948 21.6774 27.2386 22.1514 27.3219 22.6109C27.4052 23.0705 27.6243 23.4945 27.9509 23.8284L28.0359 23.9134C28.2993 24.1766 28.5083 24.489 28.6509 24.833C28.7935 25.177 28.8669 25.5457 28.8669 25.918C28.8669 26.2903 28.7935 26.659 28.6509 27.003C28.5083 27.347 28.2993 27.6594 28.0359 27.9226C27.7728 28.186 27.4603 28.395 27.1163 28.5376C26.7724 28.6802 26.4037 28.7536 26.0313 28.7536C25.659 28.7536 25.2903 28.6802 24.9463 28.5376C24.6024 28.395 24.2899 28.186 24.0267 27.9226L23.9417 27.8376C23.6079 27.511 23.1838 27.2919 22.7242 27.2086C22.2647 27.1252 21.7907 27.1815 21.3634 27.3701C20.9444 27.5497 20.5871 27.8478 20.3353 28.2279C20.0836 28.608 19.9486 29.0534 19.9467 29.5092V29.7501C19.9467 30.5015 19.6482 31.2222 19.1169 31.7535C18.5855 32.2849 17.8649 32.5834 17.1134 32.5834C16.362 32.5834 15.6413 32.2849 15.1099 31.7535C14.5786 31.2222 14.2801 30.5015 14.2801 29.7501V29.6226C14.2691 29.1537 14.1173 28.6989 13.8445 28.3174C13.5716 27.9359 13.1903 27.6453 12.7501 27.4834C12.3228 27.2948 11.8488 27.2386 11.3892 27.3219C10.9297 27.4052 10.5056 27.6243 10.1717 27.9509L10.0867 28.0359C9.82361 28.2993 9.51112 28.5083 9.16716 28.6509C8.8232 28.7935 8.45451 28.8669 8.08216 28.8669C7.70982 28.8669 7.34113 28.7935 6.99717 28.6509C6.65321 28.5083 6.34072 28.2993 6.07758 28.0359C5.81415 27.7728 5.60516 27.4603 5.46258 27.1163C5.31999 26.7724 5.2466 26.4037 5.2466 26.0313C5.2466 25.659 5.31999 25.2903 5.46258 24.9463C5.60516 24.6024 5.81415 24.2899 6.07758 24.0267L6.16258 23.9417C6.48917 23.6079 6.70826 23.1838 6.79159 22.7242C6.87491 22.2647 6.81866 21.7907 6.63008 21.3634C6.4505 20.9444 6.15232 20.5871 5.77224 20.3353C5.39216 20.0836 4.94678 19.9486 4.49091 19.9467H4.25008C3.49863 19.9467 2.77797 19.6482 2.24661 19.1169C1.71526 18.5855 1.41675 17.8649 1.41675 17.1134C1.41675 16.362 1.71526 15.6413 2.24661 15.1099C2.77797 14.5786 3.49863 14.2801 4.25008 14.2801H4.37758C4.84649 14.2691 5.30125 14.1173 5.68276 13.8445C6.06426 13.5716 6.35485 13.1903 6.51675 12.7501C6.70533 12.3228 6.76158 11.8488 6.67825 11.3892C6.59493 10.9297 6.37584 10.5056 6.04925 10.1717L5.96425 10.0867C5.70081 9.82361 5.49183 9.51112 5.34925 9.16716C5.20666 8.8232 5.13327 8.45451 5.13327 8.08216C5.13327 7.70982 5.20666 7.34113 5.34925 6.99717C5.49183 6.65321 5.70081 6.34072 5.96425 6.07758C6.22739 5.81415 6.53987 5.60516 6.88383 5.46258C7.22779 5.31999 7.59649 5.2466 7.96883 5.2466C8.34118 5.2466 8.70987 5.31999 9.05383 5.46258C9.39779 5.60516 9.71027 5.81415 9.97341 6.07758L10.0584 6.16258C10.3923 6.48917 10.8164 6.70826 11.2759 6.79159C11.7355 6.87491 12.2095 6.81866 12.6367 6.63008H12.7501C13.1691 6.4505 13.5264 6.15232 13.7781 5.77224C14.0299 5.39216 14.1649 4.94678 14.1667 4.49091V4.25008C14.1667 3.49863 14.4653 2.77797 14.9966 2.24661C15.528 1.71526 16.2486 1.41675 17.0001 1.41675C17.7515 1.41675 18.4722 1.71526 19.0035 2.24661C19.5349 2.77797 19.8334 3.49863 19.8334 4.25008V4.37758C19.8352 4.83345 19.9703 5.27883 20.222 5.65891C20.4737 6.03899 20.8311 6.33717 21.2501 6.51675C21.6774 6.70533 22.1514 6.76158 22.6109 6.67825C23.0705 6.59493 23.4945 6.37584 23.8284 6.04925L23.9134 5.96425C24.1766 5.70081 24.489 5.49183 24.833 5.34925C25.177 5.20666 25.5457 5.13327 25.918 5.13327C26.2903 5.13327 26.659 5.20666 27.003 5.34925C27.347 5.49183 27.6594 5.70081 27.9226 5.96425C28.186 6.22739 28.395 6.53987 28.5376 6.88383C28.6802 7.22779 28.7536 7.59649 28.7536 7.96883C28.7536 8.34118 28.6802 8.70987 28.5376 9.05383C28.395 9.39779 28.186 9.71027 27.9226 9.97341L27.8376 10.0584C27.511 10.3923 27.2919 10.8164 27.2086 11.2759C27.1252 11.7355 27.1815 12.2095 27.3701 12.6367V12.7501C27.5497 13.1691 27.8478 13.5264 28.2279 13.7781C28.608 14.0299 29.0534 14.1649 29.5092 14.1667H29.7501C30.5015 14.1667 31.2222 14.4653 31.7535 14.9966C32.2849 15.528 32.5834 16.2486 32.5834 17.0001C32.5834 17.7515 32.2849 18.4722 31.7535 19.0035C31.2222 19.5349 30.5015 19.8334 29.7501 19.8334H29.6226C29.1667 19.8352 28.7213 19.9703 28.3413 20.222C27.9612 20.4737 27.663 20.8311 27.4834 21.2501Z" stroke="black" stroke-width="2" stroke-linecap="round" stroke-linejoin="round"/>
</g>
<defs>
<clipPath id="clip0_168_194">
<rect width="34" height="34" fill="white"/>
</clipPath>
</defs>
</svg>
